<?xml version="1.0" standalone="no"?>
<!DOCTYPE svg PUBLIC "-//W3C//DTD SVG 20010904//EN"
 "http://www.w3.org/TR/2001/REC-SVG-20010904/DTD/svg10.dtd">
<svg version="1.0" xmlns="http://www.w3.org/2000/svg"
 width="1480.000000pt" height="1860.000000pt" viewBox="0 0 480.000000 360.000000"
 preserveAspectRatio="xMidYMid meet">

<g transform="translate(0.000000,360.000000) scale(0.100000,-0.100000)"
fill="#000000" stroke="none">
<path d="M2173 2401 c-100 -34 -167 -95 -212 -191 -23 -49 -26 -70 -29 -201
l-4 -145 -137 -22 c-75 -12 -147 -25 -160 -29 l-24 -6 30 54 c17 30 67 120
112 201 l81 146 0 96 0 96 -340 0 -340 0 0 -95 0 -95 215 0 c118 0 215 -3 215
-6 0 -5 -198 -369 -238 -438 -3 -5 6 -6 19 -3 13 3 42 8 64 11 30 5 25 1 -22
-13 -34 -11 -66 -22 -71 -25 -17 -10 -193 -338 -190 -352 2 -8 43 10 122 56
335 194 790 331 1271 381 155 16 576 16 729 0 165 -18 227 -31 109 -24 l-93 6
0 -144 c0 -137 -1 -146 -24 -180 -35 -51 -79 -69 -170 -69 l-76 0 0 200 0 200
-42 0 c-24 0 -73 -3 -110 -7 l-68 -6 0 -303 0 -302 183 4 c231 6 251 9 324 43
111 53 185 154 203 278 13 98 1 607 -16 657 -19 53 -76 128 -122 160 -86 59
-122 66 -357 66 l-215 0 0 -256 0 -257 -52 7 c-29 3 -63 6 -74 6 -21 0 -22 4
-23 126 -2 139 -13 181 -64 250 -93 123 -260 175 -404 125z m189 -208 c45 -22
61 -66 66 -184 l4 -106 -92 -6 c-51 -4 -115 -7 -142 -7 l-48 0 0 105 c0 119
12 161 56 193 48 33 98 35 156 5z m843 -13 c66 -32 77 -62 78 -205 1 -68 -1
-126 -4 -129 -2 -3 -64 3 -137 12 l-132 16 0 163 0 163 77 0 c56 0 88 -5 118
-20z"/>
<path d="M2497 1766 l-69 -11 -1 -135 c-2 -124 -4 -138 -25 -168 -48 -67 -136
-83 -193 -35 -46 39 -59 79 -59 183 0 65 -3 90 -12 90 -7 1 -57 -12 -111 -27
l-99 -28 4 -100 c3 -78 8 -110 26 -147 36 -74 96 -134 170 -170 61 -30 74 -33
162 -33 82 0 103 4 152 27 73 34 137 98 174 174 28 57 29 65 33 227 l3 167
-43 -1 c-24 -1 -75 -6 -112 -13z"/>
<path d="M1270 1334 c-127 -79 -142 -92 -138 -118 3 -21 8 -21 348 -21 l345 0
3 103 3 102 -228 0 -228 0 -105 -66z"/>
</g>
</svg>
